TITLE ""
FILE "DISC1Track09.mp3" MP3
  TRACK 01 AUDIO
    TITLE "DISC1Track09_01"
    INDEX 01 00:00:00
  TRACK 02 AUDIO
    TITLE "DISC1Track09_02"
    INDEX 01 00:01:22
  TRACK 03 AUDIO
    TITLE "DISC1Track09_03"
    INDEX 01 00:01:33
  TRACK 04 AUDIO
    TITLE "DISC1Track09_04"
    INDEX 01 00:05:23
  TRACK 05 AUDIO
    TITLE "DISC1Track09_05"
    INDEX 01 00:08:55
  TRACK 06 AUDIO
    TITLE "DISC1Track09_06"
    INDEX 01 00:11:55
  TRACK 07 AUDIO
    TITLE "DISC1Track09_07"
    INDEX 01 00:11:65
  TRACK 08 AUDIO
    TITLE "DISC1Track09_08"
    INDEX 01 00:15:33
  TRACK 09 AUDIO
    TITLE "DISC1Track09_09"
    INDEX 01 00:19:55
  TRACK 10 AUDIO
    TITLE "DISC1Track09_10"
    INDEX 01 00:23:43
  TRACK 11 AUDIO
    TITLE "DISC1Track09_11"
    INDEX 01 00:23:56
  TRACK 12 AUDIO
    TITLE "DISC1Track09_12"
    INDEX 01 00:27:25
  TRACK 13 AUDIO
    TITLE "DISC1Track09_13"
    INDEX 01 00:30:33
  TRACK 14 AUDIO
    TITLE "DISC1Track09_14"
    INDEX 01 00:33:14
  TRACK 15 AUDIO
    TITLE "DISC1Track09_15"
    INDEX 01 00:33:29
  TRACK 16 AUDIO
    TITLE "DISC1Track09_16"
    INDEX 01 00:37:39
  TRACK 17 AUDIO
    TITLE "DISC1Track09_17"
    INDEX 01 00:41:41
  TRACK 18 AUDIO
    TITLE "DISC1Track09_18"
    INDEX 01 00:45:09
  TRACK 19 AUDIO
    TITLE "DISC1Track09_19"
    INDEX 01 00:45:25
  TRACK 20 AUDIO
    TITLE "DISC1Track09_20"
    INDEX 01 00:49:11
  TRACK 21 AUDIO
    TITLE "DISC1Track09_21"
    INDEX 01 00:52:62
  TRACK 22 AUDIO
    TITLE "DISC1Track09_22"
    INDEX 01 00:56:09
  TRACK 23 AUDIO
    TITLE "DISC1Track09_23"
    INDEX 01 00:56:26
  TRACK 24 AUDIO
    TITLE "DISC1Track09_24"
    INDEX 01 00:59:50
  TRACK 25 AUDIO
    TITLE "DISC1Track09_25"
    INDEX 01 01:03:36
  TRACK 26 AUDIO
    TITLE "DISC1Track09_26"
    INDEX 01 01:06:62
  TRACK 27 AUDIO
    TITLE "DISC1Track09_27"
    INDEX 01 01:07:05
  TRACK 28 AUDIO
    TITLE "DISC1Track09_28"
    INDEX 01 01:11:48
  TRACK 29 AUDIO
    TITLE "DISC1Track09_29"
    INDEX 01 01:15:65
  TRACK 30 AUDIO
    TITLE "DISC1Track09_30"
    INDEX 01 01:19:61
  TRACK 31 AUDIO
    TITLE "DISC1Track09_31"
    INDEX 01 01:20:01
  TRACK 32 AUDIO
    TITLE "DISC1Track09_32"
    INDEX 01 01:23:72
  TRACK 33 AUDIO
    TITLE "DISC1Track09_33"
    INDEX 01 01:27:68
  TRACK 34 AUDIO
    TITLE "DISC1Track09_34"
    INDEX 01 01:31:42
  TRACK 35 AUDIO
    TITLE "DISC1Track09_35"
    INDEX 01 01:31:56
  TRACK 36 AUDIO
    TITLE "DISC1Track09_36"
    INDEX 01 01:34:29
  TRACK 37 AUDIO
    TITLE "DISC1Track09_37"
    INDEX 01 01:37:39
  TRACK 38 AUDIO
    TITLE "DISC1Track09_38"
    INDEX 01 01:40:12
  TRACK 39 AUDIO
    TITLE "DISC1Track09_39"
    INDEX 01 01:40:30
  TRACK 40 AUDIO
    TITLE "DISC1Track09_40"
    INDEX 01 01:44:43
  TRACK 41 AUDIO
    TITLE "DISC1Track09_41"
    INDEX 01 01:49:27
  TRACK 42 AUDIO
    TITLE "DISC1Track09_42"
    INDEX 01 01:53:56
